<svg xmlns="http://www.w3.org/2000/svg" width="176.9" height="34.536" viewBox="0 0 176.9 34.536">
  <g id="Group_756" data-name="Group 756" transform="translate(-84.023 -380.25)">
    <g id="CAMPAIGNs.">
      <g id="Group_786" data-name="Group 786">
        <path id="Path_176" data-name="Path 176" d="M96.85,396.013a8.292,8.292,0,0,1-4.625,1.237,8.777,8.777,0,0,1-4.325-1.013,6.775,6.775,0,0,1-2.8-2.924,11.134,11.134,0,0,1,0-9.113,6.768,6.768,0,0,1,2.8-2.937,9.7,9.7,0,0,1,8.875.125A5.434,5.434,0,0,1,99.25,384.8l-3.775,1.525a3.777,3.777,0,0,0-1.075-2.1,3.132,3.132,0,0,0-2.05-.6,3.343,3.343,0,0,0-2.825,1.313,6.2,6.2,0,0,0-1,3.812,6.394,6.394,0,0,0,.962,3.813,3.244,3.244,0,0,0,2.788,1.312,3.353,3.353,0,0,0,2.175-.65,3.478,3.478,0,0,0,1.1-2.05l3.9,1.1A6.287,6.287,0,0,1,96.85,396.013Z" fill="#030504"/>
        <path id="Path_177" data-name="Path 177" d="M113.8,393.275h-5.7L106.95,397h-4.325l5.8-16.5h5.15L119.35,397h-4.425Zm-.9-2.925-1.2-3.95-.725-2.6h-.05l-.675,2.575L109,390.35Z" fill="#030504"/>
        <path id="Path_178" data-name="Path 178" d="M142.875,397h-3.8v-7.575l.125-5.075h-.05L135.075,397H131.6l-4.075-12.65h-.05l.125,5.075V397h-3.825V380.5H129.9l2.6,8.4.925,3.5h.05l.95-3.475L137,380.5h5.875Z" fill="#030504"/>
        <path id="Path_179" data-name="Path 179" d="M161.324,381.912a5.056,5.056,0,0,1,1.65,4.063,4.831,4.831,0,0,1-1.65,3.913,7.15,7.15,0,0,1-4.725,1.387h-3.275V397h-4.3V380.5H156.6A7.066,7.066,0,0,1,161.324,381.912Zm-3.337,5.676a2.018,2.018,0,0,0,.662-1.663,1.987,1.987,0,0,0-.662-1.638,3.261,3.261,0,0,0-2.063-.537h-2.6v4.375h2.6A3.254,3.254,0,0,0,157.987,387.588Z" fill="#030504"/>
        <path id="Path_180" data-name="Path 180" d="M176,393.275h-5.7L169.149,397h-4.324l5.8-16.5h5.149L181.55,397h-4.425Zm-.9-2.925-1.2-3.95-.724-2.6h-.05l-.675,2.575-1.25,3.975Z" fill="#030504"/>
        <path id="Path_181" data-name="Path 181" d="M190.274,397h-4.3V380.5h4.3Z" fill="#030504"/>
        <path id="Path_182" data-name="Path 182" d="M211.224,388.075V397h-3l-.125-1.95a5.2,5.2,0,0,1-4.725,2.2,7.928,7.928,0,0,1-3.987-.987,6.776,6.776,0,0,1-2.713-2.9,9.988,9.988,0,0,1-.975-4.587,9.72,9.72,0,0,1,1-4.562,6.977,6.977,0,0,1,2.85-2.938,8.893,8.893,0,0,1,4.375-1.025,9.033,9.033,0,0,1,4.55,1,6.784,6.784,0,0,1,2.725,3.225l-3.975,1.575a3.052,3.052,0,0,0-1.125-1.825,3.392,3.392,0,0,0-2.05-.6,3.472,3.472,0,0,0-2.912,1.3,6.134,6.134,0,0,0-1.013,3.825q0,5.2,4.05,5.2a4.014,4.014,0,0,0,2.463-.7,2.373,2.373,0,0,0,.937-2.025v-.25h-4.1v-2.9Z" fill="#030504"/>
        <path id="Path_183" data-name="Path 183" d="M231.874,397H227.1l-5.125-8.925-1.25-2.5H220.7l.1,3.1V397H217V380.5h4.775l5.125,8.925,1.25,2.5h.025l-.1-3.1V380.5h3.8Z" fill="#030504"/>
        <path id="Path_184" data-name="Path 184" d="M248.486,380.95a8.8,8.8,0,0,1,3.088,2.275l-2.425,2.8a5.314,5.314,0,0,0-1.938-1.837,5.628,5.628,0,0,0-2.662-.588,3.7,3.7,0,0,0-2,.45,1.369,1.369,0,0,0-.7,1.2,1.149,1.149,0,0,0,.737,1.013,9.624,9.624,0,0,0,2.513.712,11,11,0,0,1,4.887,1.825,4.121,4.121,0,0,1,1.463,3.375,4.289,4.289,0,0,1-.9,2.725,5.563,5.563,0,0,1-2.488,1.75,10.092,10.092,0,0,1-3.587.6,12.635,12.635,0,0,1-4.55-.687,7.88,7.88,0,0,1-3.025-2.113l2.2-3a5.574,5.574,0,0,0,2.2,1.9,7.162,7.162,0,0,0,2.95.55,4.316,4.316,0,0,0,2.062-.387A1.216,1.216,0,0,0,247,392.4c0-.383-.247-.7-.738-.937a10.487,10.487,0,0,0-2.462-.688,18.458,18.458,0,0,1-3.513-1.012,5.161,5.161,0,0,1-2.15-1.588,4.081,4.081,0,0,1-.762-2.55,4.805,4.805,0,0,1,.837-2.775,5.464,5.464,0,0,1,2.45-1.912,9.664,9.664,0,0,1,3.813-.688A10.319,10.319,0,0,1,248.486,380.95Z" fill="#030504"/>
      </g>
      <g id="Group_787" data-name="Group 787">
        <path id="Path_185" data-name="Path 185" d="M260.261,393.3a2.145,2.145,0,0,1,.663,1.675,2.113,2.113,0,0,1-.663,1.65,3.114,3.114,0,0,1-3.675,0,2.116,2.116,0,0,1-.662-1.65,2.148,2.148,0,0,1,.662-1.675,3.114,3.114,0,0,1,3.675,0Z" fill="#a91e1c"/>
      </g>
    </g>
    <line id="Line_87" data-name="Line 87" x2="23.381" transform="translate(84.023 411.786)" fill="none" stroke="#a91e1c" stroke-width="6"/>
  </g>
</svg>
