<svg xmlns="http://www.w3.org/2000/svg" width="304.95" height="34.536" viewBox="0 0 304.95 34.536">
  <g id="Group_756" data-name="Group 756" transform="translate(-34.907 -54.487)">
    <g id="CURRENT_CAMPAIGN." data-name="CURRENT CAMPAIGN.">
      <g id="Group_822" data-name="Group 822">
        <path id="Path_286" data-name="Path 286" d="M47.734,70.25a8.3,8.3,0,0,1-4.625,1.237,8.777,8.777,0,0,1-4.325-1.013,6.777,6.777,0,0,1-2.8-2.925,11.132,11.132,0,0,1,0-9.112,6.763,6.763,0,0,1,2.8-2.937,8.724,8.724,0,0,1,4.3-1.013,8.66,8.66,0,0,1,4.575,1.138,5.435,5.435,0,0,1,2.475,3.412l-3.775,1.525a3.784,3.784,0,0,0-1.075-2.1,3.139,3.139,0,0,0-2.05-.6,3.343,3.343,0,0,0-2.825,1.312,6.208,6.208,0,0,0-1,3.813,6.383,6.383,0,0,0,.962,3.812,3.245,3.245,0,0,0,2.788,1.313,3.35,3.35,0,0,0,2.175-.651,3.472,3.472,0,0,0,1.1-2.049l3.9,1.1A6.29,6.29,0,0,1,47.734,70.25Z"/>
        <path id="Path_287" data-name="Path 287" d="M69.684,64.512a6.858,6.858,0,0,1-1.851,5.225,7.763,7.763,0,0,1-5.524,1.75,7.775,7.775,0,0,1-5.513-1.75,6.833,6.833,0,0,1-1.862-5.225V54.737h4.325v9.849a3.992,3.992,0,0,0,.75,2.651,2.862,2.862,0,0,0,2.3.875q3.1,0,3.1-3.526V54.737h4.275Z"/>
        <path id="Path_288" data-name="Path 288" d="M82.359,65.211H79.784v6.026H75.559v-16.5h7.875a7,7,0,0,1,4.612,1.349,4.8,4.8,0,0,1,1.613,3.9,5.174,5.174,0,0,1-.825,3,4.813,4.813,0,0,1-2.4,1.775l4.2,6.475h-4.75Zm-2.575-3.049h2.925a3.2,3.2,0,0,0,2-.5,1.93,1.93,0,0,0,.625-1.6,1.9,1.9,0,0,0-.625-1.575,3.208,3.208,0,0,0-2-.5H79.784Z"/>
        <path id="Path_289" data-name="Path 289" d="M102.083,65.211H99.508v6.026H95.284v-16.5h7.875a7,7,0,0,1,4.612,1.349,4.8,4.8,0,0,1,1.612,3.9,5.181,5.181,0,0,1-.824,3,4.822,4.822,0,0,1-2.4,1.775l4.2,6.475h-4.75Zm-2.575-3.049h2.926a3.2,3.2,0,0,0,2-.5,1.93,1.93,0,0,0,.625-1.6,1.9,1.9,0,0,0-.625-1.575,3.208,3.208,0,0,0-2-.5H99.508Z"/>
        <path id="Path_290" data-name="Path 290" d="M128.184,67.912v3.325H115.009v-16.5h12.849v3.325h-8.549v3.35h6.8v3.125h-6.8v3.375Z"/>
        <path id="Path_291" data-name="Path 291" d="M148.159,71.237h-4.776l-5.125-8.925-1.25-2.5h-.025l.1,3.1v8.325h-3.8v-16.5h4.775l5.125,8.925,1.25,2.5h.024l-.1-3.1V54.737h3.8Z"/>
        <path id="Path_292" data-name="Path 292" d="M168.184,58.062h-5.375V71.237h-4.3V58.062h-5.4V54.737h15.076Z"/>
        <path id="Path_293" data-name="Path 293" d="M194.383,70.25a8.293,8.293,0,0,1-4.625,1.237,8.777,8.777,0,0,1-4.325-1.013,6.777,6.777,0,0,1-2.8-2.925,11.132,11.132,0,0,1,0-9.112,6.763,6.763,0,0,1,2.8-2.937,9.7,9.7,0,0,1,8.875.125,5.435,5.435,0,0,1,2.475,3.412l-3.775,1.525a3.777,3.777,0,0,0-1.075-2.1,3.135,3.135,0,0,0-2.05-.6,3.345,3.345,0,0,0-2.825,1.312,6.214,6.214,0,0,0-1,3.813,6.383,6.383,0,0,0,.963,3.812,3.242,3.242,0,0,0,2.787,1.313,3.346,3.346,0,0,0,2.175-.651,3.466,3.466,0,0,0,1.1-2.049l3.9,1.1A6.286,6.286,0,0,1,194.383,70.25Z"/>
        <path id="Path_294" data-name="Path 294" d="M211.333,67.512h-5.7l-1.15,3.725h-4.325l5.8-16.5h5.15l5.775,16.5h-4.425Zm-.9-2.926-1.2-3.949-.725-2.6h-.05l-.675,2.575-1.25,3.974Z"/>
        <path id="Path_295" data-name="Path 295" d="M240.408,71.237h-3.8V63.662l.125-5.076h-.05l-4.075,12.651h-3.475l-4.075-12.651h-.05l.125,5.076v7.575h-3.825v-16.5h6.125l2.6,8.4.925,3.5h.05l.95-3.475,2.575-8.425h5.875Z"/>
        <path id="Path_296" data-name="Path 296" d="M258.857,56.149a5.052,5.052,0,0,1,1.65,4.062,4.829,4.829,0,0,1-1.65,3.914,7.153,7.153,0,0,1-4.725,1.387h-3.275v5.725h-4.3v-16.5h7.574A7.064,7.064,0,0,1,258.857,56.149Zm-3.337,5.676a2.019,2.019,0,0,0,.663-1.663,1.987,1.987,0,0,0-.663-1.638,3.257,3.257,0,0,0-2.062-.537h-2.6v4.375h2.6A3.251,3.251,0,0,0,255.52,61.825Z"/>
        <path id="Path_297" data-name="Path 297" d="M273.533,67.512h-5.7l-1.15,3.725h-4.325l5.8-16.5h5.15l5.775,16.5h-4.425Zm-.9-2.926-1.2-3.949-.725-2.6h-.05l-.675,2.575-1.25,3.974Z"/>
        <path id="Path_298" data-name="Path 298" d="M287.808,71.237h-4.3v-16.5h4.3Z"/>
        <path id="Path_299" data-name="Path 299" d="M308.757,62.312v8.925h-3l-.125-1.95a5.2,5.2,0,0,1-4.725,2.2,7.928,7.928,0,0,1-3.987-.987,6.776,6.776,0,0,1-2.713-2.9,9.991,9.991,0,0,1-.975-4.587,9.721,9.721,0,0,1,1-4.562,6.971,6.971,0,0,1,2.85-2.938,8.89,8.89,0,0,1,4.375-1.025,9.033,9.033,0,0,1,4.55,1,6.785,6.785,0,0,1,2.725,3.224l-3.975,1.576a3.057,3.057,0,0,0-1.125-1.826,3.4,3.4,0,0,0-2.05-.6,3.47,3.47,0,0,0-2.912,1.3,6.133,6.133,0,0,0-1.013,3.825q0,5.2,4.05,5.2a4.012,4.012,0,0,0,2.463-.7,2.374,2.374,0,0,0,.937-2.026v-.25h-4.1v-2.9Z"/>
        <path id="Path_300" data-name="Path 300" d="M329.407,71.237h-4.775l-5.125-8.925-1.25-2.5h-.025l.1,3.1v8.325h-3.8v-16.5h4.775l5.125,8.925,1.25,2.5h.025l-.1-3.1V54.737h3.8Z"/>
      </g>
      <g id="Group_823" data-name="Group 823">
        <path id="Path_301" data-name="Path 301" d="M339.194,67.537a2.144,2.144,0,0,1,.663,1.674,2.115,2.115,0,0,1-.663,1.651,3.116,3.116,0,0,1-3.674,0,2.115,2.115,0,0,1-.663-1.651,2.144,2.144,0,0,1,.663-1.674,3.112,3.112,0,0,1,3.674,0Z" fill="#ba3027"/>
      </g>
    </g>
    <line id="Line_87" data-name="Line 87" x2="23.381" transform="translate(34.907 86.023)" fill="none" stroke="#ba3027" stroke-width="6"/>
  </g>
</svg>
