<svg xmlns="http://www.w3.org/2000/svg" width="81.175" height="34.282" viewBox="0 0 81.175 34.282">
  <g id="Group_793" data-name="Group 793" transform="translate(-197.023 -132.504)">
    <g id="HELP.">
      <g id="Group_796" data-name="Group 796">
        <path id="Path_212" data-name="Path 212" d="M212.721,132.5V149h-4.3v-6.648h-6.3V149h-4.3V132.5h4.3v6.523h6.3V132.5Z"/>
        <path id="Path_213" data-name="Path 213" d="M232.046,145.676V149H218.875V132.5h12.847v3.324h-8.548v3.35h6.8V142.3h-6.8v3.374Z"/>
        <path id="Path_214" data-name="Path 214" d="M249.722,145.676V149H237.15V132.5h4.3v13.172Z"/>
        <path id="Path_215" data-name="Path 215" d="M268.646,137.978c0,3.374-2.274,5.3-6.373,5.3H259V149h-4.3V132.5h7.573C266.372,132.5,268.646,134.429,268.646,137.978Zm-4.324-.05c0-1.449-.824-2.175-2.724-2.175H259v4.374h2.6C263.5,140.127,264.322,139.4,264.322,137.928Z"/>
      </g>
      <g id="Group_797" data-name="Group 797">
        <path id="Path_216" data-name="Path 216" d="M278.2,146.976a2.511,2.511,0,1,1-2.5-2.275A2.2,2.2,0,0,1,278.2,146.976Z" fill="#ba3027"/>
      </g>
    </g>
    <line id="Line_87" data-name="Line 87" x2="23.381" transform="translate(197.024 163.786)" fill="none" stroke="#ba3027" stroke-width="6"/>
  </g>
</svg>
