<svg xmlns="http://www.w3.org/2000/svg" width="90.602" height="34.536" viewBox="0 0 90.602 34.536">
  <g id="Group_784" data-name="Group 784" transform="translate(-735.023 -524.25)">
    <g id="HOME.">
      <g id="Group_784-2" data-name="Group 784">
        <path id="Path_171" data-name="Path 171" d="M750.725,524.5V541h-4.3v-6.65h-6.3V541h-4.3V524.5h4.3v6.525h6.3V524.5Z"/>
        <path id="Path_172" data-name="Path 172" d="M768.587,525.263a6.8,6.8,0,0,1,2.788,2.925,11.163,11.163,0,0,1,0,9.125,6.8,6.8,0,0,1-2.788,2.924,9.711,9.711,0,0,1-8.637,0,6.774,6.774,0,0,1-2.8-2.924,11.162,11.162,0,0,1,0-9.125,6.777,6.777,0,0,1,2.8-2.925,9.711,9.711,0,0,1,8.637,0Zm-7.062,3.662a8.175,8.175,0,0,0,0,7.65,3.2,3.2,0,0,0,2.75,1.3,3.164,3.164,0,0,0,2.737-1.3,8.268,8.268,0,0,0,0-7.65,3.164,3.164,0,0,0-2.737-1.3A3.2,3.2,0,0,0,761.525,528.925Z"/>
        <path id="Path_173" data-name="Path 173" d="M796.9,541h-3.8v-7.575l.125-5.075h-.05L789.1,541h-3.475l-4.075-12.65h-.05l.125,5.075V541H777.8V524.5h6.125l2.6,8.4.926,3.5h.05l.95-3.475,2.574-8.425H796.9Z"/>
        <path id="Path_174" data-name="Path 174" d="M816.225,537.675V541H803.05V524.5H815.9v3.325H807.35v3.35h6.8V534.3h-6.8v3.375Z"/>
      </g>
      <g id="Group_785" data-name="Group 785">
        <path id="Path_175" data-name="Path 175" d="M824.962,537.3a2.148,2.148,0,0,1,.663,1.675,2.116,2.116,0,0,1-.663,1.65,3.114,3.114,0,0,1-3.675,0,2.112,2.112,0,0,1-.662-1.65,2.144,2.144,0,0,1,.662-1.675,3.114,3.114,0,0,1,3.675,0Z" fill="#ba3027"/>
      </g>
    </g>
    <line id="Line_87" data-name="Line 87" x2="23.381" transform="translate(735.023 555.786)" fill="none" stroke="#ba3027" stroke-width="6"/>
  </g>
</svg>
