<svg xmlns="http://www.w3.org/2000/svg" width="202.251" height="34.536" viewBox="0 0 202.251 34.536">
  <g id="Group_756" data-name="Group 756" transform="translate(-125.023 -72.783)">
    <g id="INTEGRATION.">
      <g id="Group_820" data-name="Group 820">
        <path id="Path_274" data-name="Path 274" d="M130.125,89.533h-4.3v-16.5h4.3Z"/>
        <path id="Path_275" data-name="Path 275" d="M151.15,89.533h-4.775l-5.125-8.925-1.25-2.5h-.025l.1,3.1v8.325h-3.8v-16.5h4.775l5.125,8.925,1.25,2.5h.025l-.1-3.1V73.033h3.8Z"/>
        <path id="Path_276" data-name="Path 276" d="M171.175,76.358H165.8V89.533h-4.3V76.358h-5.4V73.033h15.075Z"/>
        <path id="Path_277" data-name="Path 277" d="M189.3,86.208v3.325H176.125v-16.5h12.85v3.325h-8.55v3.35h6.8v3.125h-6.8v3.375Z"/>
        <path id="Path_278" data-name="Path 278" d="M209.05,80.608v8.925h-3l-.125-1.95a5.2,5.2,0,0,1-4.725,2.2,7.928,7.928,0,0,1-3.987-.987,6.773,6.773,0,0,1-2.713-2.9,9.994,9.994,0,0,1-.975-4.587,9.725,9.725,0,0,1,1-4.563,6.974,6.974,0,0,1,2.85-2.937,8.882,8.882,0,0,1,4.375-1.026,9.033,9.033,0,0,1,4.55,1,6.783,6.783,0,0,1,2.725,3.225l-3.975,1.575a3.055,3.055,0,0,0-1.125-1.825,3.392,3.392,0,0,0-2.05-.6,3.472,3.472,0,0,0-2.912,1.3,6.142,6.142,0,0,0-1.013,3.825q0,5.2,4.05,5.2a4.012,4.012,0,0,0,2.463-.7,2.372,2.372,0,0,0,.937-2.025v-.25h-4.1v-2.9Z"/>
        <path id="Path_279" data-name="Path 279" d="M221.625,83.508H219.05v6.025h-4.225v-16.5H222.7a7,7,0,0,1,4.612,1.35,4.8,4.8,0,0,1,1.613,3.9,5.174,5.174,0,0,1-.825,3,4.815,4.815,0,0,1-2.4,1.776l4.2,6.474h-4.75Zm-2.575-3.05h2.925a3.2,3.2,0,0,0,2-.5,1.925,1.925,0,0,0,.625-1.6,1.9,1.9,0,0,0-.625-1.575,3.206,3.206,0,0,0-2-.5H219.05Z"/>
        <path id="Path_280" data-name="Path 280" d="M244,85.809h-5.7l-1.15,3.724h-4.325l5.8-16.5h5.15l5.775,16.5h-4.425Zm-.9-2.926-1.2-3.949-.725-2.6h-.05l-.675,2.575-1.25,3.975Z"/>
        <path id="Path_281" data-name="Path 281" d="M265.625,76.358H260.25V89.533h-4.3V76.358h-5.4V73.033h15.075Z"/>
        <path id="Path_282" data-name="Path 282" d="M274.875,89.533h-4.3v-16.5h4.3Z"/>
        <path id="Path_283" data-name="Path 283" d="M292.737,73.8a6.8,6.8,0,0,1,2.788,2.925,11.163,11.163,0,0,1,0,9.125,6.808,6.808,0,0,1-2.788,2.925,9.72,9.72,0,0,1-8.637,0,6.783,6.783,0,0,1-2.8-2.925,11.163,11.163,0,0,1,0-9.125,6.778,6.778,0,0,1,2.8-2.925,9.712,9.712,0,0,1,8.637,0Zm-7.062,3.662a6.439,6.439,0,0,0-.95,3.825,6.435,6.435,0,0,0,.95,3.825,3.2,3.2,0,0,0,2.75,1.3,3.161,3.161,0,0,0,2.737-1.3,6.505,6.505,0,0,0,.938-3.825,6.509,6.509,0,0,0-.938-3.825,3.164,3.164,0,0,0-2.737-1.3A3.2,3.2,0,0,0,285.675,77.458Z"/>
        <path id="Path_284" data-name="Path 284" d="M316.825,89.533H312.05l-5.125-8.925-1.25-2.5h-.026l.1,3.1v8.325h-3.8v-16.5h4.775l5.125,8.925,1.25,2.5h.025l-.1-3.1V73.033h3.8Z"/>
      </g>
      <g id="Group_821" data-name="Group 821">
        <path id="Path_285" data-name="Path 285" d="M326.612,85.833a2.144,2.144,0,0,1,.662,1.675,2.112,2.112,0,0,1-.662,1.65,3.114,3.114,0,0,1-3.675,0,2.113,2.113,0,0,1-.663-1.65,2.145,2.145,0,0,1,.663-1.675,3.114,3.114,0,0,1,3.675,0Z" fill="#ba3027"/>
      </g>
    </g>
    <line id="Line_87" data-name="Line 87" x2="23.381" transform="translate(125.024 104.319)" fill="none" stroke="#ba3027" stroke-width="6"/>
  </g>
</svg>
