<svg xmlns="http://www.w3.org/2000/svg" width="260.125" height="34.536" viewBox="0 0 260.125 34.536">
  <g id="Group_756" data-name="Group 756" transform="translate(-96.023 -129.25)">
    <g id="PAST_CAMPAIGNS." data-name="PAST CAMPAIGNS.">
      <g id="Group_824" data-name="Group 824">
        <path id="Path_302" data-name="Path 302" d="M109.125,130.912a5.053,5.053,0,0,1,1.65,4.063,4.828,4.828,0,0,1-1.65,3.913,7.148,7.148,0,0,1-4.725,1.387h-3.275V146h-4.3V129.5H104.4A7.064,7.064,0,0,1,109.125,130.912Zm-3.337,5.676a2.019,2.019,0,0,0,.663-1.663,1.987,1.987,0,0,0-.663-1.638,3.257,3.257,0,0,0-2.062-.537h-2.6v4.375h2.6A3.251,3.251,0,0,0,105.788,136.588Z"/>
        <path id="Path_303" data-name="Path 303" d="M123.8,142.275h-5.7L116.951,146h-4.325l5.8-16.5h5.15l5.775,16.5h-4.425Zm-.9-2.925-1.2-3.95-.725-2.6h-.05l-.675,2.575L119,139.35Z"/>
        <path id="Path_304" data-name="Path 304" d="M144.163,129.95a8.8,8.8,0,0,1,3.087,2.275l-2.424,2.8a5.329,5.329,0,0,0-1.938-1.837,5.628,5.628,0,0,0-2.662-.588,3.7,3.7,0,0,0-2,.45,1.37,1.37,0,0,0-.7,1.2,1.151,1.151,0,0,0,.738,1.013,9.614,9.614,0,0,0,2.512.712,11,11,0,0,1,4.888,1.825,4.121,4.121,0,0,1,1.462,3.375,4.288,4.288,0,0,1-.9,2.725,5.574,5.574,0,0,1-2.488,1.75,10.093,10.093,0,0,1-3.588.6,12.633,12.633,0,0,1-4.549-.687,7.873,7.873,0,0,1-3.025-2.113l2.2-3a5.577,5.577,0,0,0,2.2,1.9,7.158,7.158,0,0,0,2.949.55,4.321,4.321,0,0,0,2.063-.387,1.217,1.217,0,0,0,.687-1.113q0-.574-.737-.937a10.517,10.517,0,0,0-2.462-.688,18.457,18.457,0,0,1-3.513-1.012,5.155,5.155,0,0,1-2.15-1.588,4.082,4.082,0,0,1-.763-2.55,4.806,4.806,0,0,1,.838-2.775,5.458,5.458,0,0,1,2.45-1.912,9.663,9.663,0,0,1,3.812-.688A10.321,10.321,0,0,1,144.163,129.95Z"/>
        <path id="Path_305" data-name="Path 305" d="M165.876,132.825H160.5V146h-4.3V132.825h-5.4V129.5h15.075Z"/>
        <path id="Path_306" data-name="Path 306" d="M192.076,145.013a8.3,8.3,0,0,1-4.625,1.237,8.783,8.783,0,0,1-4.326-1.013,6.778,6.778,0,0,1-2.8-2.924,11.134,11.134,0,0,1,0-9.113,6.772,6.772,0,0,1,2.8-2.937,9.7,9.7,0,0,1,8.875.125,5.436,5.436,0,0,1,2.476,3.412l-3.775,1.525a3.771,3.771,0,0,0-1.076-2.1,3.128,3.128,0,0,0-2.049-.6,3.346,3.346,0,0,0-2.826,1.313,6.211,6.211,0,0,0-1,3.812,6.386,6.386,0,0,0,.963,3.813,3.242,3.242,0,0,0,2.787,1.312,3.356,3.356,0,0,0,2.176-.65,3.472,3.472,0,0,0,1.1-2.05l3.9,1.1A6.287,6.287,0,0,1,192.076,145.013Z"/>
        <path id="Path_307" data-name="Path 307" d="M209.025,142.275h-5.7L202.175,146h-4.324l5.8-16.5h5.15l5.776,16.5H210.15Zm-.9-2.925-1.2-3.95-.724-2.6h-.051l-.674,2.575-1.25,3.975Z"/>
        <path id="Path_308" data-name="Path 308" d="M238.1,146h-3.8v-7.575l.125-5.075h-.05L230.3,146h-3.475l-4.075-12.65h-.05l.125,5.075V146H219V129.5h6.125l2.6,8.4.925,3.5h.05l.95-3.475,2.575-8.425H238.1Z"/>
        <path id="Path_309" data-name="Path 309" d="M256.55,130.912a5.056,5.056,0,0,1,1.65,4.063,4.831,4.831,0,0,1-1.65,3.913,7.15,7.15,0,0,1-4.725,1.387H248.55V146h-4.3V129.5h7.575A7.066,7.066,0,0,1,256.55,130.912Zm-3.337,5.676a2.018,2.018,0,0,0,.662-1.663,1.987,1.987,0,0,0-.662-1.638,3.26,3.26,0,0,0-2.063-.537h-2.6v4.375h2.6A3.254,3.254,0,0,0,253.213,136.588Z"/>
        <path id="Path_310" data-name="Path 310" d="M271.226,142.275h-5.7L264.375,146h-4.324l5.8-16.5H271l5.776,16.5h-4.425Zm-.9-2.925-1.2-3.95-.724-2.6h-.05l-.675,2.575-1.25,3.975Z"/>
        <path id="Path_311" data-name="Path 311" d="M285.5,146h-4.3V129.5h4.3Z"/>
        <path id="Path_312" data-name="Path 312" d="M306.45,137.075V146h-3l-.125-1.95a5.2,5.2,0,0,1-4.725,2.2,7.935,7.935,0,0,1-3.988-.987,6.78,6.78,0,0,1-2.712-2.9,9.988,9.988,0,0,1-.975-4.587,9.721,9.721,0,0,1,1-4.562,6.977,6.977,0,0,1,2.85-2.938,8.893,8.893,0,0,1,4.375-1.025,9.033,9.033,0,0,1,4.55,1,6.783,6.783,0,0,1,2.725,3.225l-3.975,1.575a3.052,3.052,0,0,0-1.125-1.825,3.392,3.392,0,0,0-2.05-.6,3.474,3.474,0,0,0-2.913,1.3,6.14,6.14,0,0,0-1.012,3.825q0,5.2,4.05,5.2a4.011,4.011,0,0,0,2.462-.7,2.374,2.374,0,0,0,.938-2.025v-.25h-4.1v-2.9Z"/>
        <path id="Path_313" data-name="Path 313" d="M327.1,146h-4.776l-5.125-8.925-1.25-2.5h-.025l.1,3.1V146h-3.8V129.5H317l5.125,8.925,1.25,2.5h.025l-.1-3.1V129.5h3.8Z"/>
        <path id="Path_314" data-name="Path 314" d="M343.713,129.95a8.8,8.8,0,0,1,3.087,2.275l-2.425,2.8a5.314,5.314,0,0,0-1.938-1.837,5.625,5.625,0,0,0-2.662-.588,3.7,3.7,0,0,0-2,.45,1.371,1.371,0,0,0-.7,1.2,1.149,1.149,0,0,0,.737,1.013,9.636,9.636,0,0,0,2.513.712,11.008,11.008,0,0,1,4.888,1.825,4.124,4.124,0,0,1,1.462,3.375,4.289,4.289,0,0,1-.9,2.725,5.563,5.563,0,0,1-2.488,1.75,10.087,10.087,0,0,1-3.587.6,12.636,12.636,0,0,1-4.55-.687,7.88,7.88,0,0,1-3.025-2.113l2.2-3a5.574,5.574,0,0,0,2.2,1.9,7.166,7.166,0,0,0,2.95.55,4.314,4.314,0,0,0,2.062-.387,1.216,1.216,0,0,0,.688-1.113q0-.574-.738-.937a10.487,10.487,0,0,0-2.462-.688,18.423,18.423,0,0,1-3.512-1.012,5.165,5.165,0,0,1-2.151-1.588,4.088,4.088,0,0,1-.762-2.55,4.805,4.805,0,0,1,.837-2.775,5.461,5.461,0,0,1,2.451-1.912,9.659,9.659,0,0,1,3.812-.688A10.321,10.321,0,0,1,343.713,129.95Z"/>
      </g>
      <g id="Group_825" data-name="Group 825">
        <path id="Path_315" data-name="Path 315" d="M355.487,142.3a2.144,2.144,0,0,1,.662,1.675,2.112,2.112,0,0,1-.662,1.65,3.114,3.114,0,0,1-3.675,0,2.113,2.113,0,0,1-.663-1.65,2.145,2.145,0,0,1,.663-1.675,3.114,3.114,0,0,1,3.675,0Z" fill="#ba3027"/>
      </g>
    </g>
    <line id="Line_87" data-name="Line 87" x2="23.381" transform="translate(96.024 160.786)" fill="none" stroke="#ba3027" stroke-width="6"/>
  </g>
</svg>
