<svg xmlns="http://www.w3.org/2000/svg" width="128.852" height="34.536" viewBox="0 0 128.852 34.536">
  <g id="Group_756" data-name="Group 756" transform="translate(-108.023 -380.25)">
    <g id="PROFILE.">
      <g id="Group_788" data-name="Group 788">
        <path id="Path_186" data-name="Path 186" d="M121.125,381.912a5.056,5.056,0,0,1,1.65,4.063,4.831,4.831,0,0,1-1.65,3.913,7.15,7.15,0,0,1-4.725,1.387h-3.275V397h-4.3V380.5H116.4A7.066,7.066,0,0,1,121.125,381.912Zm-3.337,5.676a2.018,2.018,0,0,0,.662-1.663,1.987,1.987,0,0,0-.662-1.638,3.261,3.261,0,0,0-2.063-.537h-2.6v4.375h2.6A3.254,3.254,0,0,0,117.788,387.588Z" fill="#030504"/>
        <path id="Path_187" data-name="Path 187" d="M134.825,390.975H132.25V397h-4.225V380.5H135.9a7,7,0,0,1,4.613,1.35,4.8,4.8,0,0,1,1.612,3.9,5.174,5.174,0,0,1-.825,3,4.807,4.807,0,0,1-2.4,1.775L143.1,397h-4.75Zm-2.575-3.05h2.925a3.2,3.2,0,0,0,2-.5,1.925,1.925,0,0,0,.625-1.6,1.9,1.9,0,0,0-.625-1.575,3.206,3.206,0,0,0-2-.5H132.25Z" fill="#030504"/>
        <path id="Path_188" data-name="Path 188" d="M159.312,381.263a6.8,6.8,0,0,1,2.788,2.925,11.163,11.163,0,0,1,0,9.125,6.794,6.794,0,0,1-2.788,2.924,9.712,9.712,0,0,1-8.637,0,6.775,6.775,0,0,1-2.8-2.924,11.163,11.163,0,0,1,0-9.125,6.777,6.777,0,0,1,2.8-2.925,9.712,9.712,0,0,1,8.637,0Zm-7.062,3.662a8.175,8.175,0,0,0,0,7.65,3.2,3.2,0,0,0,2.75,1.3,3.164,3.164,0,0,0,2.737-1.3,8.268,8.268,0,0,0,0-7.65,3.164,3.164,0,0,0-2.737-1.3A3.2,3.2,0,0,0,152.25,384.925Z" fill="#030504"/>
        <path id="Path_189" data-name="Path 189" d="M172.825,383.825v3.5h6.8v3.325h-6.8V397h-4.3V380.5H181.35v3.325Z" fill="#030504"/>
        <path id="Path_190" data-name="Path 190" d="M190.625,397h-4.3V380.5h4.3Z" fill="#030504"/>
        <path id="Path_191" data-name="Path 191" d="M209.35,393.675V397H196.775V380.5h4.3v13.175Z" fill="#030504"/>
        <path id="Path_192" data-name="Path 192" d="M227.5,393.675V397H214.325V380.5h12.849v3.325h-8.549v3.35h6.8V390.3h-6.8v3.375Z" fill="#030504"/>
      </g>
      <g id="Group_789" data-name="Group 789">
        <path id="Path_193" data-name="Path 193" d="M236.212,393.3a2.148,2.148,0,0,1,.663,1.675,2.116,2.116,0,0,1-.663,1.65,3.114,3.114,0,0,1-3.675,0,2.112,2.112,0,0,1-.662-1.65,2.144,2.144,0,0,1,.662-1.675,3.114,3.114,0,0,1,3.675,0Z" fill="#a91e1c"/>
      </g>
    </g>
    <line id="Line_87" data-name="Line 87" x2="23.381" transform="translate(108.023 411.786)" fill="none" stroke="#a91e1c" stroke-width="6"/>
  </g>
</svg>
