<svg xmlns="http://www.w3.org/2000/svg" width="231.174" height="34.536" viewBox="0 0 231.174 34.536">
  <g id="Group_756" data-name="Group 756" transform="translate(-59.037 -371.143)">
    <g id="TRANSACTIONS.">
      <g id="Group_790" data-name="Group 790">
        <path id="Path_194" data-name="Path 194" d="M74.112,374.718H68.737v13.175h-4.3V374.718h-5.4v-3.325H74.112Z" fill="#030504"/>
        <path id="Path_195" data-name="Path 195" d="M85.862,381.868H83.287v6.025H79.062v-16.5h7.875a7,7,0,0,1,4.612,1.35,4.8,4.8,0,0,1,1.613,3.9,5.174,5.174,0,0,1-.825,3,4.807,4.807,0,0,1-2.4,1.775l4.2,6.475h-4.75Zm-2.575-3.05h2.925a3.2,3.2,0,0,0,2-.5,1.928,1.928,0,0,0,.625-1.6,1.9,1.9,0,0,0-.625-1.575,3.208,3.208,0,0,0-2-.5H83.287Z" fill="#030504"/>
        <path id="Path_196" data-name="Path 196" d="M108.236,384.168h-5.7l-1.151,3.725H97.062l5.8-16.5h5.15l5.776,16.5h-4.426Zm-.9-2.925-1.2-3.95-.724-2.6h-.051l-.674,2.575-1.25,3.975Z" fill="#030504"/>
        <path id="Path_197" data-name="Path 197" d="M133.086,387.893h-4.775l-5.125-8.925-1.25-2.5h-.025l.1,3.1v8.325h-3.8v-16.5h4.775l5.125,8.925,1.25,2.5h.025l-.1-3.1v-8.325h3.8Z" fill="#030504"/>
        <path id="Path_198" data-name="Path 198" d="M149.7,371.843a8.8,8.8,0,0,1,3.087,2.275l-2.425,2.8a5.319,5.319,0,0,0-1.937-1.837,5.632,5.632,0,0,0-2.663-.588,3.706,3.706,0,0,0-2,.45,1.369,1.369,0,0,0-.7,1.2,1.151,1.151,0,0,0,.738,1.013,9.562,9.562,0,0,0,2.512.712,11,11,0,0,1,4.888,1.825,4.121,4.121,0,0,1,1.462,3.375,4.289,4.289,0,0,1-.9,2.725,5.563,5.563,0,0,1-2.488,1.75,10.084,10.084,0,0,1-3.587.6,12.639,12.639,0,0,1-4.55-.687,7.869,7.869,0,0,1-3.025-2.113l2.2-3a5.574,5.574,0,0,0,2.2,1.9,7.166,7.166,0,0,0,2.95.55,4.3,4.3,0,0,0,2.062-.387,1.216,1.216,0,0,0,.688-1.113q0-.574-.737-.937a10.516,10.516,0,0,0-2.463-.688,18.445,18.445,0,0,1-3.512-1.012,5.155,5.155,0,0,1-2.15-1.588,4.082,4.082,0,0,1-.763-2.55,4.8,4.8,0,0,1,.838-2.775,5.465,5.465,0,0,1,2.45-1.912,9.677,9.677,0,0,1,3.812-.688A10.325,10.325,0,0,1,149.7,371.843Z" fill="#030504"/>
        <path id="Path_199" data-name="Path 199" d="M167.186,384.168h-5.7l-1.15,3.725h-4.325l5.8-16.5h5.15l5.775,16.5h-4.425Zm-.9-2.925-1.2-3.95-.725-2.6h-.05l-.675,2.575-1.25,3.975Z" fill="#030504"/>
        <path id="Path_200" data-name="Path 200" d="M188.561,386.906a8.3,8.3,0,0,1-4.625,1.237,8.777,8.777,0,0,1-4.325-1.013,6.775,6.775,0,0,1-2.8-2.924,11.134,11.134,0,0,1,0-9.113,6.768,6.768,0,0,1,2.8-2.937,9.7,9.7,0,0,1,8.875.125,5.437,5.437,0,0,1,2.475,3.412l-3.775,1.525a3.777,3.777,0,0,0-1.075-2.1,3.133,3.133,0,0,0-2.05-.6,3.343,3.343,0,0,0-2.825,1.313,6.2,6.2,0,0,0-1,3.812,6.394,6.394,0,0,0,.962,3.813,3.244,3.244,0,0,0,2.788,1.312,3.355,3.355,0,0,0,2.175-.65,3.478,3.478,0,0,0,1.1-2.05l3.9,1.1A6.287,6.287,0,0,1,188.561,386.906Z" fill="#030504"/>
        <path id="Path_201" data-name="Path 201" d="M209.936,374.718h-5.375v13.175h-4.3V374.718h-5.4v-3.325h15.075Z" fill="#030504"/>
        <path id="Path_202" data-name="Path 202" d="M219.186,387.893h-4.3v-16.5h4.3Z" fill="#030504"/>
        <path id="Path_203" data-name="Path 203" d="M237.048,372.156a6.8,6.8,0,0,1,2.788,2.925,11.163,11.163,0,0,1,0,9.125,6.8,6.8,0,0,1-2.788,2.924,9.712,9.712,0,0,1-8.637,0,6.775,6.775,0,0,1-2.8-2.924,11.163,11.163,0,0,1,0-9.125,6.777,6.777,0,0,1,2.8-2.925,9.712,9.712,0,0,1,8.637,0Zm-7.062,3.662a8.175,8.175,0,0,0,0,7.65,3.2,3.2,0,0,0,2.75,1.3,3.164,3.164,0,0,0,2.737-1.3,8.268,8.268,0,0,0,0-7.65,3.164,3.164,0,0,0-2.737-1.3A3.2,3.2,0,0,0,229.986,375.818Z" fill="#030504"/>
        <path id="Path_204" data-name="Path 204" d="M261.136,387.893H256.36l-5.125-8.925-1.25-2.5h-.025l.1,3.1v8.325h-3.8v-16.5h4.775l5.125,8.925,1.25,2.5h.025l-.1-3.1v-8.325h3.8Z" fill="#030504"/>
        <path id="Path_205" data-name="Path 205" d="M277.748,371.843a8.8,8.8,0,0,1,3.087,2.275l-2.424,2.8a5.33,5.33,0,0,0-1.938-1.837,5.628,5.628,0,0,0-2.662-.588,3.7,3.7,0,0,0-2,.45,1.37,1.37,0,0,0-.7,1.2,1.151,1.151,0,0,0,.738,1.013,9.574,9.574,0,0,0,2.512.712,11,11,0,0,1,4.888,1.825,4.121,4.121,0,0,1,1.462,3.375,4.288,4.288,0,0,1-.9,2.725,5.574,5.574,0,0,1-2.488,1.75,10.093,10.093,0,0,1-3.588.6,12.633,12.633,0,0,1-4.549-.687,7.862,7.862,0,0,1-3.025-2.113l2.2-3a5.577,5.577,0,0,0,2.2,1.9,7.158,7.158,0,0,0,2.949.55,4.309,4.309,0,0,0,2.063-.387,1.217,1.217,0,0,0,.687-1.113q0-.574-.737-.937a10.519,10.519,0,0,0-2.462-.688,18.457,18.457,0,0,1-3.513-1.012,5.155,5.155,0,0,1-2.15-1.588,4.082,4.082,0,0,1-.763-2.55,4.806,4.806,0,0,1,.838-2.775,5.465,5.465,0,0,1,2.45-1.912,9.68,9.68,0,0,1,3.812-.688A10.321,10.321,0,0,1,277.748,371.843Z" fill="#030504"/>
      </g>
      <g id="Group_791" data-name="Group 791">
        <path id="Path_206" data-name="Path 206" d="M289.548,384.193a2.145,2.145,0,0,1,.663,1.675,2.113,2.113,0,0,1-.663,1.65,3.112,3.112,0,0,1-3.674,0,2.113,2.113,0,0,1-.663-1.65,2.145,2.145,0,0,1,.663-1.675,3.112,3.112,0,0,1,3.674,0Z" fill="#a91e1c"/>
      </g>
    </g>
    <line id="Line_87" data-name="Line 87" x2="23.381" transform="translate(59.435 402.679)" fill="none" stroke="#a91e1c" stroke-width="6"/>
  </g>
</svg>
