<svg xmlns="http://www.w3.org/2000/svg" width="337.974" height="34.536" viewBox="0 0 337.974 34.536">
  <g id="Group_756" data-name="Group 756" transform="translate(-56.625 -199.25)">
    <g id="TRANSFER_DONATIONS." data-name="TRANSFER DONATIONS.">
      <g id="Group_828" data-name="Group 828">
        <path id="Path_332" data-name="Path 332" d="M71.7,202.825H66.326V216h-4.3V202.825h-5.4V199.5H71.7Z"/>
        <path id="Path_333" data-name="Path 333" d="M83.451,209.975H80.875V216H76.651V199.5h7.875a7,7,0,0,1,4.612,1.35,4.8,4.8,0,0,1,1.612,3.9,5.174,5.174,0,0,1-.824,3,4.812,4.812,0,0,1-2.4,1.775l4.2,6.475h-4.75Zm-2.576-3.05H83.8a3.2,3.2,0,0,0,2-.5,1.928,1.928,0,0,0,.625-1.6,1.9,1.9,0,0,0-.625-1.575,3.208,3.208,0,0,0-2-.5H80.875Z"/>
        <path id="Path_334" data-name="Path 334" d="M105.825,212.275h-5.7L98.975,216H94.65l5.8-16.5h5.15l5.775,16.5H106.95Zm-.9-2.925-1.2-3.95L103,202.8h-.05l-.675,2.575-1.25,3.975Z"/>
        <path id="Path_335" data-name="Path 335" d="M130.675,216H125.9l-5.125-8.925-1.25-2.5H119.5l.1,3.1V216h-3.8V199.5h4.775l5.125,8.925,1.25,2.5h.025l-.1-3.1V199.5h3.8Z"/>
        <path id="Path_336" data-name="Path 336" d="M147.288,199.95a8.8,8.8,0,0,1,3.087,2.275l-2.425,2.8a5.319,5.319,0,0,0-1.937-1.837,5.632,5.632,0,0,0-2.663-.588,3.7,3.7,0,0,0-2,.45,1.369,1.369,0,0,0-.7,1.2,1.151,1.151,0,0,0,.738,1.013,9.6,9.6,0,0,0,2.512.712,11.008,11.008,0,0,1,4.888,1.825,4.121,4.121,0,0,1,1.462,3.375,4.289,4.289,0,0,1-.9,2.725,5.563,5.563,0,0,1-2.488,1.75,10.087,10.087,0,0,1-3.587.6,12.639,12.639,0,0,1-4.55-.687,7.88,7.88,0,0,1-3.025-2.113l2.2-3a5.574,5.574,0,0,0,2.2,1.9,7.166,7.166,0,0,0,2.95.55,4.316,4.316,0,0,0,2.062-.387,1.216,1.216,0,0,0,.688-1.113q0-.574-.738-.937a10.487,10.487,0,0,0-2.462-.688,18.478,18.478,0,0,1-3.513-1.012,5.168,5.168,0,0,1-2.15-1.588,4.088,4.088,0,0,1-.762-2.55,4.8,4.8,0,0,1,.838-2.775,5.461,5.461,0,0,1,2.449-1.912,9.668,9.668,0,0,1,3.813-.688A10.325,10.325,0,0,1,147.288,199.95Z"/>
        <path id="Path_337" data-name="Path 337" d="M159.725,202.825v3.5h6.8v3.325h-6.8V216h-4.3V199.5H168.25v3.325Z"/>
        <path id="Path_338" data-name="Path 338" d="M186.4,212.675V216H173.225V199.5h12.85v3.325h-8.55v3.35h6.8V209.3h-6.8v3.375Z"/>
        <path id="Path_339" data-name="Path 339" d="M198.3,209.975h-2.575V216H191.5V199.5h7.875a7,7,0,0,1,4.612,1.35,4.8,4.8,0,0,1,1.613,3.9,5.174,5.174,0,0,1-.825,3,4.807,4.807,0,0,1-2.4,1.775l4.2,6.475h-4.75Zm-2.575-3.05h2.925a3.2,3.2,0,0,0,2-.5,1.928,1.928,0,0,0,.625-1.6,1.9,1.9,0,0,0-.625-1.575,3.208,3.208,0,0,0-2-.5h-2.925Z"/>
        <path id="Path_340" data-name="Path 340" d="M233.812,201.638a10.085,10.085,0,0,1,0,12.224A7.871,7.871,0,0,1,227.875,216h-7V199.5h7A7.871,7.871,0,0,1,233.812,201.638ZM230.5,211.5a7.7,7.7,0,0,0,0-7.5,3.629,3.629,0,0,0-3.05-1.25h-2.275v10h2.275A3.626,3.626,0,0,0,230.5,211.5Z"/>
        <path id="Path_341" data-name="Path 341" d="M253.037,200.263a6.8,6.8,0,0,1,2.787,2.925,11.163,11.163,0,0,1,0,9.125,6.8,6.8,0,0,1-2.787,2.924,9.714,9.714,0,0,1-8.638,0,6.775,6.775,0,0,1-2.8-2.924,11.163,11.163,0,0,1,0-9.125,6.777,6.777,0,0,1,2.8-2.925,9.714,9.714,0,0,1,8.638,0Zm-7.063,3.662a8.175,8.175,0,0,0,0,7.65,3.2,3.2,0,0,0,2.75,1.3,3.164,3.164,0,0,0,2.737-1.3,8.268,8.268,0,0,0,0-7.65,3.164,3.164,0,0,0-2.737-1.3A3.2,3.2,0,0,0,245.974,203.925Z"/>
        <path id="Path_342" data-name="Path 342" d="M277.125,216h-4.776l-5.125-8.925-1.25-2.5h-.025l.1,3.1V216h-3.8V199.5h4.774l5.125,8.925,1.25,2.5h.025l-.1-3.1V199.5h3.8Z"/>
        <path id="Path_343" data-name="Path 343" d="M292.725,212.275h-5.7L285.874,216H281.55l5.8-16.5H292.5l5.775,16.5H293.85Zm-.9-2.925-1.2-3.95-.725-2.6h-.049l-.675,2.575-1.25,3.975Z"/>
        <path id="Path_344" data-name="Path 344" d="M314.35,202.825h-5.375V216h-4.3V202.825h-5.4V199.5H314.35Z"/>
        <path id="Path_345" data-name="Path 345" d="M323.6,216h-4.3V199.5h4.3Z"/>
        <path id="Path_346" data-name="Path 346" d="M341.462,200.263a6.794,6.794,0,0,1,2.787,2.925,11.163,11.163,0,0,1,0,9.125,6.792,6.792,0,0,1-2.787,2.924,9.714,9.714,0,0,1-8.638,0,6.775,6.775,0,0,1-2.8-2.924,11.163,11.163,0,0,1,0-9.125,6.778,6.778,0,0,1,2.8-2.925,9.714,9.714,0,0,1,8.638,0Zm-7.063,3.662a8.175,8.175,0,0,0,0,7.65,3.547,3.547,0,0,0,5.489,0,8.276,8.276,0,0,0,0-7.65,3.547,3.547,0,0,0-5.489,0Z"/>
        <path id="Path_347" data-name="Path 347" d="M365.55,216h-4.776l-5.125-8.925-1.25-2.5h-.024l.1,3.1V216h-3.8V199.5h4.774l5.125,8.925,1.25,2.5h.026l-.1-3.1V199.5h3.8Z"/>
        <path id="Path_348" data-name="Path 348" d="M382.161,199.95a8.79,8.79,0,0,1,3.088,2.275l-2.425,2.8a5.319,5.319,0,0,0-1.937-1.837,5.632,5.632,0,0,0-2.663-.588,3.7,3.7,0,0,0-2,.45,1.369,1.369,0,0,0-.7,1.2,1.151,1.151,0,0,0,.738,1.013,9.614,9.614,0,0,0,2.512.712,10.988,10.988,0,0,1,4.887,1.825,4.119,4.119,0,0,1,1.463,3.375,4.289,4.289,0,0,1-.9,2.725,5.563,5.563,0,0,1-2.488,1.75,10.087,10.087,0,0,1-3.587.6,12.639,12.639,0,0,1-4.55-.687,7.888,7.888,0,0,1-3.025-2.113l2.2-3a5.574,5.574,0,0,0,2.2,1.9,7.163,7.163,0,0,0,2.95.55,4.314,4.314,0,0,0,2.062-.387,1.218,1.218,0,0,0,.688-1.113q0-.574-.737-.937a10.529,10.529,0,0,0-2.463-.688,18.466,18.466,0,0,1-3.512-1.012,5.142,5.142,0,0,1-2.15-1.588,4.082,4.082,0,0,1-.763-2.55,4.8,4.8,0,0,1,.838-2.775,5.453,5.453,0,0,1,2.45-1.912,9.659,9.659,0,0,1,3.812-.688A10.312,10.312,0,0,1,382.161,199.95Z"/>
      </g>
      <g id="Group_829" data-name="Group 829">
        <path id="Path_349" data-name="Path 349" d="M393.937,212.3a2.148,2.148,0,0,1,.662,1.675,2.116,2.116,0,0,1-.662,1.65,3.114,3.114,0,0,1-3.675,0,2.11,2.11,0,0,1-.663-1.65,2.141,2.141,0,0,1,.663-1.675,3.114,3.114,0,0,1,3.675,0Z" fill="#ba3027"/>
      </g>
    </g>
    <line id="Line_87" data-name="Line 87" x2="23.381" transform="translate(57.024 230.786)" fill="none" stroke="#ba3027" stroke-width="6"/>
  </g>
</svg>
